<?xml version="1.0" encoding="utf-8"?>
<!-- Svg Vector Icons : http://www.onlinewebfonts.com/icon -->
<!DOCTYPE svg PUBLIC "-//W3C//DTD SVG 1.1//EN" "http://www.w3.org/Graphics/SVG/1.1/DTD/svg11.dtd">
<svg version="1.1" xmlns="http://www.w3.org/2000/svg" xmlns:xlink="http://www.w3.org/1999/xlink" x="0px" y="0px" viewBox="0 0 256 256" enable-background="new 0 0 256 256" xml:space="preserve">
<metadata> Svg Vector Icons : http://www.onlinewebfonts.com/icon </metadata>
<g><g><path fill="#000000" d="M24.3,10.5c-7.2,0-13.3,6-13.3,13.3v23.6c-0.2,0-0.4,0.2-0.4,0.4s0.2,0.4,0.4,0.4V53v146.5c-1.3,1.3-1.3,3.4,0,4.7c1.3,1.3,3.4,1.3,4.7,0h108.7c2.6,0,4.7-2.1,4.7-4.7c0-2.6-2.1-4.7-4.7-4.7h-104V53h189.1v75.6c0,2.6,2.1,4.7,4.7,4.7c2.6,0,4.7-2.1,4.7-4.7V53v-4.7c0.2,0,0.4-0.2,0.4-0.4c0-0.2-0.2-0.4-0.4-0.4l0,0V23.8c0-7.2-6-13.3-13.3-13.3H24.3z M24.3,19.9h181.4c2.2,0,3.8,1.6,3.8,3.8v19.8H20.4V23.8C20.4,21.6,22.1,19.9,24.3,19.9z M44.1,81.4v9.5H63v-9.5H44.1z M77.2,81.4v9.5h108.7v-9.5H77.2z M44.1,105v9.5H63V105H44.1z M77.2,105v9.5h108.7V105H77.2z M44.1,128.7v9.4H63v-9.5L44.1,128.7L44.1,128.7z M77.2,128.7v9.4h66.2v-9.5L77.2,128.7L77.2,128.7z M181.1,133.4c-26.1,0-47.3,21.2-47.3,47.3c0,26.1,21.2,47.3,47.3,47.3c11.3,0,21.7-4,29.8-10.6l28.2,28.2l6.8-6.8l-28.2-28.2c6.7-8.1,10.6-18.5,10.6-29.8C228.4,154.6,207.2,133.4,181.1,133.4z M181.1,142.8c21,0,37.8,16.9,37.8,37.8c0,21-16.9,37.8-37.8,37.8c-21,0-37.8-16.9-37.8-37.8C143.3,159.7,160.2,142.8,181.1,142.8z M44.1,152.3v9.5H63v-9.5H44.1z M77.2,152.3v9.5h47.3v-9.5H77.2z"/></g></g>
</svg>