<?xml version="1.0" encoding="utf-8"?>
<!-- Svg Vector Icons : http://www.onlinewebfonts.com/icon -->
<!DOCTYPE svg PUBLIC "-//W3C//DTD SVG 1.1//EN" "http://www.w3.org/Graphics/SVG/1.1/DTD/svg11.dtd">
<svg version="1.1" xmlns="http://www.w3.org/2000/svg" xmlns:xlink="http://www.w3.org/1999/xlink" x="0px" y="0px" viewBox="0 0 256 256" enable-background="new 0 0 256 256" xml:space="preserve">
<metadata> Svg Vector Icons : http://www.onlinewebfonts.com/icon </metadata>
<g><g><g><path fill="#000000" d="M83.1,15.1v7.8h42h42l13,12.8c7.1,7.1,13,13,13.2,13.1c0.1,0.1,0.2-9.1,0.2-20.6V7.3h-55.2H83.1V15.1z"/><path fill="#000000" d="M198.6,31.1v23.3h23.7H246l-23.3-23.3C209.8,18.3,199.2,7.8,199,7.8C198.8,7.8,198.6,18.3,198.6,31.1z"/><path fill="#000000" d="M49,28.4l-2.7,0.1v7.7v7.8h42.1h42.1l13.1,13.1l13.1,13.1v-21v-21h-52.4C75.4,28.3,50.5,28.3,49,28.4z"/><path fill="#000000" d="M161.8,52.1v23.6h23.7h23.7l-23.6-23.6c-13-13-23.6-23.6-23.7-23.6C161.9,28.5,161.8,39.1,161.8,52.1z"/><path fill="#000000" d="M10,149v99.7h81.3h81.3l-0.1-73.5l-0.1-73.4l-26.3-0.1l-26.3-0.1V75.4V49.3H64.9H10V149z M104.3,80.8V86H64.9H25.6v-5.2v-5.2h39.4h39.4L104.3,80.8L104.3,80.8z M104.3,107v5.4H64.9H25.6V107v-5.4h39.4h39.4L104.3,107L104.3,107z M156.6,133.2v5.2H91.1H25.6v-5.2V128h65.5h65.5L156.6,133.2L156.6,133.2z M156.6,159.6v5.2H91.1H25.6v-5.2v-5.2h65.5h65.5L156.6,159.6L156.6,159.6z M156.6,185.8v5.4H91.1H25.6v-5.4v-5.4h65.5h65.5L156.6,185.8L156.6,185.8z M156.6,211.9v5.2H91.1H25.6v-5.2v-5.2h65.5h65.5L156.6,211.9L156.6,211.9z"/><path fill="#000000" d="M125.1,73.1v23.3h23.7h23.7l-23.3-23.3c-12.8-12.8-23.5-23.3-23.7-23.3C125.2,49.7,125.1,60.2,125.1,73.1z"/><path fill="#000000" d="M209.4,65l5.3,5.4v7.8V86h7.8h7.8v5.2v5.2h-7.8h-7.8v8v8h7.8h7.8v5.2v5.2h-7.8h-7.8v7.8v7.8h7.8h7.8v5.4v5.4l-7.8-0.1l-7.8-0.1v7.9v7.9h7.8h7.8v5.2v5.2h-7.8h-7.8v15.8v15.8h15.6h15.6v-73.6V59.6h-20.8h-20.8L209.4,65z"/><path fill="#000000" d="M172.6,86.2l5.3,5.3v7.9v7.9h7.8h7.8v5.2v5.2h-7.8h-7.8v7.8v7.8h7.8h7.8v5.2v5.2h-7.8h-7.8v8v8h7.8h7.8v5.2v5.2h-7.8h-7.8v7.9v7.9l7.8-0.1l7.8-0.1v5.4v5.4h-7.8h-7.8v15.8V228l15.7-0.1l15.7-0.1l0.1-73.5l0.1-73.4h-21.1h-21.1L172.6,86.2z"/></g></g></g>
</svg>